<?xml version="1.0" encoding="UTF-8"?>
<svg width="324" height="324" viewBox="0 0 324 324" xmlns="http://www.w3.org/2000/svg">
  <defs>
    <linearGradient id="grad" x1="0%" y1="0%" x2="100%" y2="100%">
      <stop offset="0%" style="stop-color:#8B5CF6;stop-opacity:1" />
      <stop offset="100%" style="stop-color:#06B6D4;stop-opacity:1" />
    </linearGradient>
  </defs>
  <g transform="translate(72.89999999999999, 72.89999999999999) scale(0.7747826086956523)">
    <path fill="url(#grad)" d="
  M 80 25
  C 30 25, 5 55, 5 100
  C 5 145, 30 175, 80 175
  C 115 175, 140 155, 145 125
  L 145 95
  L 85 95
  L 85 115
  L 120 115
  C 115 145, 100 155, 80 155
  C 45 155, 25 130, 25 100
  C 25 70, 45 45, 80 45
  C 100 45, 118 55, 130 72
  L 148 55
  C 132 32, 108 25, 80 25
  Z
"/>
    <path fill="url(#grad)" d="
  M 165 25
  L 165 175
  L 220 175
  L 220 155
  L 190 155
  L 190 110
  L 215 110
  L 215 90
  L 190 90
  L 190 45
  L 220 45
  L 220 25
  Z
"/>
  </g>
</svg>