<?xml version="1.0" encoding="UTF-8"?>
<svg width="80" height="80" viewBox="0 0 230 230" xmlns="http://www.w3.org/2000/svg">
  <defs>
    <linearGradient id="logoGradient" x1="0%" y1="0%" x2="100%" y2="100%">
      <stop offset="0%" style="stop-color:#8B5CF6;stop-opacity:1" />
      <stop offset="100%" style="stop-color:#06B6D4;stop-opacity:1" />
    </linearGradient>
  </defs>
  <rect width="230" height="230" fill="white"/>
  <g>
    <!-- Shadow layer -->
    <path d="
  M 80 25
  C 30 25, 5 55, 5 100
  C 5 145, 30 175, 80 175
  C 115 175, 140 155, 145 125
  L 145 95
  L 85 95
  L 85 115
  L 120 115
  C 115 145, 100 155, 80 155
  C 45 155, 25 130, 25 100
  C 25 70, 45 45, 80 45
  C 100 45, 118 55, 130 72
  L 148 55
  C 132 32, 108 25, 80 25
  Z
" fill="rgba(139, 92, 246, 0.3)" transform="translate(2, 2)" />
    <path d="
  M 165 25
  L 165 175
  L 220 175
  L 220 155
  L 190 155
  L 190 110
  L 215 110
  L 215 90
  L 190 90
  L 190 45
  L 220 45
  L 220 25
  Z
" fill="rgba(6, 182, 212, 0.3)" transform="translate(2, 2)" />
    
    <!-- Main letters -->
    <path d="
  M 80 25
  C 30 25, 5 55, 5 100
  C 5 145, 30 175, 80 175
  C 115 175, 140 155, 145 125
  L 145 95
  L 85 95
  L 85 115
  L 120 115
  C 115 145, 100 155, 80 155
  C 45 155, 25 130, 25 100
  C 25 70, 45 45, 80 45
  C 100 45, 118 55, 130 72
  L 148 55
  C 132 32, 108 25, 80 25
  Z
" fill="url(#logoGradient)" />
    <path d="
  M 165 25
  L 165 175
  L 220 175
  L 220 155
  L 190 155
  L 190 110
  L 215 110
  L 215 90
  L 190 90
  L 190 45
  L 220 45
  L 220 25
  Z
" fill="url(#logoGradient)" />
    
    <!-- Blue dot -->
    <circle cx="58" cy="100" r="12" fill="#06B6D4" />
    <circle cx="58" cy="100" r="6" fill="#FFFFFF" />
  </g>
</svg>